<svg width="28" height="28" viewBox="0 0 28 28" fill="none" xmlns="http://www.w3.org/2000/svg">
<path d="M14 23.3335C15.933 23.3335 17.5 21.7665 17.5 19.8335C17.5 17.9005 15.933 16.3335 14 16.3335C12.067 16.3335 10.5 17.9005 10.5 19.8335C10.5 21.7665 12.067 23.3335 14 23.3335Z" stroke="#2E85FF" stroke-width="2.33333" stroke-linecap="round" stroke-linejoin="round"/>
<path d="M4.90121 17.6167C3.9903 16.757 3.28934 15.6993 2.85254 14.5254C2.41574 13.3515 2.25481 12.0929 2.38219 10.8468C2.50957 9.60081 2.92186 8.40078 3.58716 7.33955C4.25246 6.27832 5.15295 5.38435 6.21897 4.72677C7.285 4.06918 8.48799 3.66562 9.73492 3.54728C10.9818 3.42894 12.2393 3.599 13.41 4.0443C14.5807 4.48961 15.6333 5.19823 16.4863 6.11535C17.3394 7.03248 17.97 8.13353 18.3295 9.33336H20.4179C21.5307 9.34836 22.61 9.71663 23.4999 10.385C24.3899 11.0534 25.0443 11.9873 25.3689 13.0518C25.6935 14.1164 25.6713 15.2566 25.3057 16.3078C24.94 17.3589 24.2497 18.2667 23.3345 18.9" stroke="#2E85FF" stroke-width="2.33333" stroke-linecap="round" stroke-linejoin="round"/>
<path d="M18.3156 21.4667L17.2656 21.1167" stroke="#2E85FF" stroke-width="2.33333" stroke-linecap="round" stroke-linejoin="round"/>
<path d="M10.7336 18.5502L9.68359 18.2002" stroke="#2E85FF" stroke-width="2.33333" stroke-linecap="round" stroke-linejoin="round"/>
<path d="M12.3672 24.1501L12.7172 23.1001" stroke="#2E85FF" stroke-width="2.33333" stroke-linecap="round" stroke-linejoin="round"/>
<path d="M15.2852 16.5666L15.6352 15.5166" stroke="#2E85FF" stroke-width="2.33333" stroke-linecap="round" stroke-linejoin="round"/>
<path d="M15.8651 24.1501L15.3984 22.9834" stroke="#2E85FF" stroke-width="2.33333" stroke-linecap="round" stroke-linejoin="round"/>
<path d="M12.5995 16.6833L12.1328 15.5166" stroke="#2E85FF" stroke-width="2.33333" stroke-linecap="round" stroke-linejoin="round"/>
<path d="M9.68359 21.7001L10.8503 21.2334" stroke="#2E85FF" stroke-width="2.33333" stroke-linecap="round" stroke-linejoin="round"/>
<path d="M17.1484 18.4335L18.3151 17.9668" stroke="#2E85FF" stroke-width="2.33333" stroke-linecap="round" stroke-linejoin="round"/>
</svg>
