<svg width="28" height="28" viewBox="0 0 28 28" fill="none" xmlns="http://www.w3.org/2000/svg">
<path d="M18.6654 24.5V22.1667C18.6654 20.929 18.1737 19.742 17.2985 18.8668C16.4234 17.9917 15.2364 17.5 13.9987 17.5H6.9987C5.76102 17.5 4.57404 17.9917 3.69887 18.8668C2.8237 19.742 2.33203 20.929 2.33203 22.1667V24.5" stroke="#2E85FF" stroke-width="2.33333" stroke-linecap="round" stroke-linejoin="round"/>
<path d="M10.4987 12.8333C13.076 12.8333 15.1654 10.744 15.1654 8.16667C15.1654 5.58934 13.076 3.5 10.4987 3.5C7.92137 3.5 5.83203 5.58934 5.83203 8.16667C5.83203 10.744 7.92137 12.8333 10.4987 12.8333Z" stroke="#2E85FF" stroke-width="2.33333" stroke-linecap="round" stroke-linejoin="round"/>
<path d="M25.668 24.5002V22.1669C25.6672 21.1329 25.3231 20.1284 24.6896 19.3112C24.0561 18.494 23.1691 17.9104 22.168 17.6519" stroke="#2E85FF" stroke-width="2.33333" stroke-linecap="round" stroke-linejoin="round"/>
<path d="M18.668 3.65186C19.6718 3.90887 20.5615 4.49267 21.1969 5.31122C21.8322 6.12976 22.1771 7.13649 22.1771 8.17269C22.1771 9.20889 21.8322 10.2156 21.1969 11.0342C20.5615 11.8527 19.6718 12.4365 18.668 12.6935" stroke="#2E85FF" stroke-width="2.33333" stroke-linecap="round" stroke-linejoin="round"/>
</svg>
