<svg width="42" height="42" viewBox="0 0 42 42" fill="none" xmlns="http://www.w3.org/2000/svg">
  <path d="M7.875 28.8753C5.25 31.0803 4.375 37.6253 4.375 37.6253C4.375 37.6253 10.92 36.7503 13.125 34.1253C14.3675 32.6553 14.35 30.3978 12.9675 29.0328C12.2873 28.3836 11.3913 28.0084 10.4514 27.9794C9.51153 27.9503 8.59403 28.2694 7.875 28.8753Z" stroke="#155DFC" stroke-width="4" stroke-linecap="round" stroke-linejoin="round"/>
  <path d="M21 26.2504L15.75 21.0004C16.6813 18.5844 17.8539 16.2685 19.25 14.0879C21.2891 10.8277 24.1283 8.14327 27.4978 6.29009C30.8672 4.43692 34.6547 3.47658 38.5 3.50043C38.5 8.26043 37.135 16.6254 28 22.7504C25.7896 24.1482 23.4445 25.3207 21 26.2504Z" stroke="#155DFC" stroke-width="4" stroke-linecap="round" stroke-linejoin="round"/>
  <path d="M16.4746 20.965H7.72461C7.72461 20.965 8.68711 15.6625 11.2246 13.965C14.0596 12.075 19.9746 13.965 19.9746 13.965" stroke="#155DFC" stroke-width="4" stroke-linecap="round" stroke-linejoin="round"/>
  <path d="M21 26.25V35C21 35 26.3025 34.0375 28 31.5C29.89 28.665 28 22.75 28 22.75" stroke="#155DFC" stroke-width="4" stroke-linecap="round" stroke-linejoin="round"/>
</svg>
