<svg width="42" height="42" viewBox="0 0 42 42" fill="none" xmlns="http://www.w3.org/2000/svg">
  <path d="M22.4526 3.81465C21.9966 3.60666 21.5012 3.49902 21.0001 3.49902C20.4989 3.49902 20.0035 3.60666 19.5476 3.81465L4.55006 10.6396C4.23952 10.7766 3.9755 11.0008 3.79014 11.2851C3.60479 11.5694 3.5061 11.9015 3.5061 12.2409C3.5061 12.5803 3.60479 12.9123 3.79014 13.1967C3.9755 13.481 4.23952 13.7052 4.55006 13.8421L19.5651 20.6846C20.021 20.8926 20.5164 21.0003 21.0176 21.0003C21.5187 21.0003 22.0141 20.8926 22.4701 20.6846L37.4851 13.8596C37.7956 13.7227 38.0596 13.4985 38.245 13.2141C38.4303 12.9298 38.529 12.5978 38.529 12.2584C38.529 11.919 38.4303 11.5869 38.245 11.3026C38.0596 11.0183 37.7956 10.7941 37.4851 10.6571L22.4526 3.81465Z" stroke="#155DFC" stroke-width="4" stroke-linecap="round" stroke-linejoin="round"/>
  <path d="M3.50001 21C3.49918 21.3347 3.59436 21.6627 3.77426 21.9449C3.95416 22.2272 4.21124 22.4519 4.51501 22.5925L19.565 29.435C20.0186 29.6404 20.5108 29.7466 21.0088 29.7466C21.5067 29.7466 21.9989 29.6404 22.4525 29.435L37.4675 22.61C37.7773 22.4708 38.0398 22.2444 38.2232 21.9585C38.4065 21.6727 38.5027 21.3396 38.5 21" stroke="#155DFC" stroke-width="4" stroke-linecap="round" stroke-linejoin="round"/>
  <path d="M3.50001 29.75C3.49918 30.0847 3.59436 30.4127 3.77426 30.6949C3.95416 30.9772 4.21124 31.2019 4.51501 31.3425L19.565 38.185C20.0186 38.3904 20.5108 38.4966 21.0088 38.4966C21.5067 38.4966 21.9989 38.3904 22.4525 38.185L37.4675 31.36C37.7773 31.2208 38.0398 30.9944 38.2232 30.7085C38.4065 30.4227 38.5027 30.0896 38.5 29.75" stroke="#155DFC" stroke-width="4" stroke-linecap="round" stroke-linejoin="round"/>
</svg>
