<svg width="42" height="42" viewBox="0 0 42 42" fill="none" xmlns="http://www.w3.org/2000/svg">
  <path d="M21.385 3.5H20.615C19.6867 3.5 18.7965 3.86875 18.1401 4.52513C17.4838 5.1815 17.115 6.07174 17.115 7V7.315C17.1144 7.92877 16.9524 8.53158 16.6452 9.06297C16.338 9.59435 15.8965 10.0356 15.365 10.3425L14.6125 10.78C14.0804 11.0872 13.4769 11.2489 12.8625 11.2489C12.2481 11.2489 11.6446 11.0872 11.1125 10.78L10.85 10.64C10.0469 10.1767 9.09272 10.051 8.19701 10.2905C7.3013 10.5301 6.53722 11.1152 6.0725 11.9175L5.6875 12.5825C5.22421 13.3856 5.09853 14.3398 5.33804 15.2355C5.57755 16.1312 6.16269 16.8953 6.965 17.36L7.2275 17.535C7.75649 17.8404 8.19634 18.2789 8.50334 18.807C8.81035 19.335 8.97382 19.9342 8.9775 20.545V21.4375C8.97995 22.0542 8.81939 22.6607 8.51208 23.1954C8.20477 23.7301 7.76162 24.1741 7.2275 24.4825L6.965 24.64C6.16269 25.1047 5.57755 25.8688 5.33804 26.7645C5.09853 27.6602 5.22421 28.6144 5.6875 29.4175L6.0725 30.0825C6.53722 30.8848 7.3013 31.4699 8.19701 31.7095C9.09272 31.949 10.0469 31.8233 10.85 31.36L11.1125 31.22C11.6446 30.9128 12.2481 30.7511 12.8625 30.7511C13.4769 30.7511 14.0804 30.9128 14.6125 31.22L15.365 31.6575C15.8965 31.9644 16.338 32.4057 16.6452 32.937C16.9524 33.4684 17.1144 34.0712 17.115 34.685V35C17.115 35.9283 17.4838 36.8185 18.1401 37.4749C18.7965 38.1313 19.6867 38.5 20.615 38.5H21.385C22.3133 38.5 23.2035 38.1313 23.8599 37.4749C24.5163 36.8185 24.885 35.9283 24.885 35V34.685C24.8856 34.0712 25.0477 33.4684 25.3548 32.937C25.662 32.4057 26.1035 31.9644 26.635 31.6575L27.3875 31.22C27.9196 30.9128 28.5231 30.7511 29.1375 30.7511C29.7519 30.7511 30.3554 30.9128 30.8875 31.22L31.15 31.36C31.9531 31.8233 32.9073 31.949 33.803 31.7095C34.6987 31.4699 35.4628 30.8848 35.9275 30.0825L36.3125 29.4C36.7758 28.5969 36.9015 27.6427 36.662 26.747C36.4225 25.8513 35.8373 25.0872 35.035 24.6225L34.7725 24.4825C34.2384 24.1741 33.7952 23.7301 33.4879 23.1954C33.1806 22.6607 33.0201 22.0542 33.0225 21.4375V20.5625C33.0201 19.9458 33.1806 19.3393 33.4879 18.8046C33.7952 18.2699 34.2384 17.8259 34.7725 17.5175L35.035 17.36C35.8373 16.8953 36.4225 16.1312 36.662 15.2355C36.9015 14.3398 36.7758 13.3856 36.3125 12.5825L35.9275 11.9175C35.4628 11.1152 34.6987 10.5301 33.803 10.2905C32.9073 10.051 31.9531 10.1767 31.15 10.64L30.8875 10.78C30.3554 11.0872 29.7519 11.2489 29.1375 11.2489C28.5231 11.2489 27.9196 11.0872 27.3875 10.78L26.635 10.3425C26.1035 10.0356 25.662 9.59435 25.3548 9.06297C25.0477 8.53158 24.8856 7.92877 24.885 7.315V7C24.885 6.07174 24.5163 5.1815 23.8599 4.52513C23.2035 3.86875 22.3133 3.5 21.385 3.5Z" stroke="#155DFC" stroke-width="4" stroke-linecap="round" stroke-linejoin="round"/>
  <path d="M21 26.25C23.8995 26.25 26.25 23.8995 26.25 21C26.25 18.1005 23.8995 15.75 21 15.75C18.1005 15.75 15.75 18.1005 15.75 21C15.75 23.8995 18.1005 26.25 21 26.25Z" stroke="#155DFC" stroke-width="4" stroke-linecap="round" stroke-linejoin="round"/>
</svg>
